<?xml version="1.0" encoding="utf-8"?>
<!-- Generator: Adobe Illustrator 19.0.0, SVG Export Plug-In . SVG Version: 6.00 Build 0)  -->
<svg version="1.1" id="Layer_1" xmlns="http://www.w3.org/2000/svg" xmlns:xlink="http://www.w3.org/1999/xlink" x="0px" y="0px"
	 viewBox="0 0 902 706.4" style="enable-background:new 0 0 902 706.4;" xml:space="preserve">
<style type="text/css">
	.st0{display:none;}
	.st1{display:inline;fill:#FFFFFF;stroke:#000000;stroke-miterlimit:10;}
	.st2{display:inline;fill:none;stroke:#000000;stroke-miterlimit:10;}
	.st3{fill:#414042;}
	.st4{fill:#F15A29;}
	.st5{fill:#F15A29;stroke:#F15A29;stroke-width:5;stroke-miterlimit:10;}
</style>
<g id="XMLID_1_" class="st0">
	<circle id="XMLID_2_" class="st1" cx="456.8" cy="358.8" r="239.9"/>
	<line id="XMLID_3_" class="st2" x1="216.9" y1="358.8" x2="696.6" y2="358.8"/>
	<line id="XMLID_4_" class="st2" x1="456.8" y1="118.9" x2="456.8" y2="598.6"/>
</g>
<g id="XMLID_52_">
	<path id="XMLID_55_" class="st3" d="M75.2,377.3c-150.9,150.9-18.8,320.1,0,322.8c0,0,48.1,0,53.9,0c0-60.6,0-262.8,0-323.5
		l0.2,6.2c0-256.8,224.7-328.2,322.8-328.2l46.7-46.7c0,0,0.1-0.1,0.1-0.1C481.7,5.1,465.8,4,452.1,4C337.6,4,75.2,85,75.2,376.4"/>
	<g id="XMLID_33_">
		<path id="XMLID_54_" class="st3" d="M73.5,375.5C43.1,406,18.8,442.8,7.9,484.8c-8.5,32.6-8.5,66.9-1.2,99.7
			c6,27.4,16.9,53.8,31.6,77.7c5.3,8.7,11.2,17,17.8,24.8c4.2,4.9,8.7,10,14.1,13.5c5.6,3.6,13,2.1,19.3,2.1c13.2,0,26.4,0,39.7,0
			c1.4,0,2.5-1.1,2.5-2.5c0-39.6,0-79.1,0-118.7c0-49,0-98.1,0-147.1c0-19.2,0-38.5,0-57.7c-1.7,0-3.3,0-5,0
			c0.1,2.1,0.2,4.1,0.2,6.2c0.1,3.2,5,3.2,5,0c0.1-52,9.5-104.3,32.7-151.3c18.8-38.2,46.2-71.6,79.3-98.3
			c29.5-23.8,63.4-42.1,99-55c29.2-10.6,59.8-18,90.8-20.4c3.2-0.2,6.4-0.4,9.5-0.6c2.8-0.1,6.2,0.4,8.9-0.2
			c3.8-0.8,7.6-6.6,10.1-9.1C474.2,36,486.2,24,498.1,12.1c0.9-0.9,1.8-1.7,2.6-2.6c1.2-1.2,0.8-3.9-1.1-4.2
			C462.1-0.2,425.3,1,388.2,8C353.7,14.6,320,25.3,288,39.7c-36.3,16.4-70.5,37.8-100.3,64.2c-32.5,28.9-59.4,63.8-78.5,102.9
			c-22.4,46-33.6,96.7-36,147.7c-0.3,7.3-0.5,14.6-0.5,21.9c0,3.2,5,3.2,5,0c0.1-52.2,8.6-104.7,29.3-152.9
			c17.2-40,42.3-76.1,73.6-106.3c28.3-27.4,61.3-49.7,96.6-67C309,34.7,342.6,23,377,15.4C407.5,8.7,438.7,5,469.9,7
			c9.5,0.6,19,1.7,28.4,3c-0.4-1.4-0.7-2.8-1.1-4.2C487.3,16,477.1,26,467.1,36c-5.1,5.1-10.2,10.2-15.3,15.3
			c-0.4,0.4-0.9,0.9-1.3,1.3c-0.5,0.5,1.7-0.3,0.8-0.6c-0.7-0.2-1.6,0-2.3,0c-3.1,0-6.1,0.2-9.2,0.3c-30.6,1.7-61,8.3-90,18.1
			c-35.8,12.1-70,29.4-100.3,52.1c-33.7,25.2-62.2,57-82.7,93.9c-24.5,44.1-36.7,94-39.4,144.3c-0.4,7.4-0.6,14.7-0.6,22.1
			c1.7,0,3.3,0,5,0c-0.1-2.1-0.2-4.1-0.2-6.2c-0.1-3.2-5-3.2-5,0c0,39.6,0,79.1,0,118.7c0,49,0,98.1,0,147.1c0,19.2,0,38.5,0,57.7
			c0.8-0.8,1.7-1.7,2.5-2.5c-10.9,0-21.8,0-32.8,0c-5.6,0-11.2,0-16.8,0c-1.3,0-2.7,0.1-3.9,0c-0.4,0,0.1,0.2-1.1-0.3
			c-3.8-1.7-8.3-6.4-11.5-9.9c-6.1-6.6-11.5-13.9-16.5-21.4c-32-48.4-47.7-109.3-36.8-166.8C18.6,452.8,44,412.2,77,379
			C79.3,376.8,75.7,373.2,73.5,375.5L73.5,375.5z"/>
	</g>
</g>
<g id="XMLID_6_">
	<path id="XMLID_51_" class="st3" d="M175.1,681.4c0-60.6,0-197.7,0-258.3h-30.9c0,60.6,0,197.7,0,258.3H175.1z"/>
	<g id="XMLID_46_">
		<path id="XMLID_50_" class="st3" d="M177.6,681.4c0-69.7,0-139.5,0-209.2c0-16.4,0-32.7,0-49.1c0-1.4-1.1-2.5-2.5-2.5
			c-10.3,0-20.6,0-30.9,0c-1.4,0-2.5,1.1-2.5,2.5c0,69.7,0,139.5,0,209.2c0,16.4,0,32.7,0,49.1c0,1.4,1.1,2.5,2.5,2.5
			c10.3,0,20.6,0,30.9,0c3.2,0,3.2-5,0-5c-10.3,0-20.6,0-30.9,0c0.8,0.8,1.7,1.7,2.5,2.5c0-69.7,0-139.5,0-209.2
			c0-16.4,0-32.7,0-49.1c-0.8,0.8-1.7,1.7-2.5,2.5c10.3,0,20.6,0,30.9,0c-0.8-0.8-1.7-1.7-2.5-2.5c0,69.7,0,139.5,0,209.2
			c0,16.4,0,32.7,0,49.1C172.6,684.6,177.6,684.6,177.6,681.4z"/>
	</g>
</g>
<g id="XMLID_13_">
	<path id="XMLID_45_" class="st4" d="M792.7,207.8c-8.9-18.3-19.2-35.1-30.6-50.5c-33.2,17.8-571.1,333.5-571.1,333.5
		c0,17.3,0,34.6,0,51.9c0,0,590.6-233.8,630.5-248.2C815.1,262.4,805.3,233.6,792.7,207.8z"/>
	<g id="XMLID_40_">
		<path id="XMLID_44_" class="st4" d="M794.8,206.5c-8.7-17.7-18.9-34.6-30.6-50.5c-0.8-1.1-2.1-1.6-3.4-0.9
			c-24.8,13.4-48.9,28-73.3,42.2c-48.2,28-96.3,56.1-144.4,84.2c-55.3,32.3-110.5,64.6-165.7,97c-44.8,26.3-89.6,52.5-134.4,78.8
			c-13.4,7.9-26.8,15.7-40.2,23.6c-3.4,2-6.8,4-10.2,6c-4.3,2.5-4.1,3.4-4.1,9.8c0,15.3,0,30.6,0,45.9c0,1.5,1.6,3,3.2,2.4
			c19.7-7.8,39.3-15.6,59-23.3c47.7-18.9,95.4-37.7,143.1-56.6c58.7-23.2,117.5-46.4,176.2-69.6c52.8-20.8,105.6-41.6,158.5-62.4
			c29.9-11.7,59.8-23.6,89.8-34.9c1.3-0.5,2.6-1,3.8-1.4c1.3-0.5,2-1.7,1.7-3.1C817.8,263.6,808.3,234.2,794.8,206.5
			c-1.4-2.9-5.7-0.4-4.3,2.5c13.3,27.3,22.6,56.3,28.5,86c0.6-1,1.2-2.1,1.7-3.1c-26.1,9.5-51.9,20-77.8,30.2
			c-50.9,20-101.9,40-152.8,60.1c-58.9,23.2-117.9,46.5-176.8,69.8c-50,19.7-100,39.5-149.9,59.3c-16.3,6.5-32.7,12.9-49,19.4
			c-5.1,2-10.2,4-15.3,6.1c-2.4,1-5.7,1.7-7.8,3.1c-0.3,0.2-0.7,0.3-1,0.4c1.1,0.8,2.1,1.6,3.2,2.4c0-17.3,0-34.6,0-51.9
			c-0.4,0.7-0.8,1.4-1.2,2.2c18-10.5,35.9-21.1,53.9-31.6c43.5-25.5,87-51,130.5-76.5c53.2-31.1,106.3-62.3,159.5-93.4
			c47.9-28,95.8-56,143.7-83.9c26.7-15.5,53.3-31.3,80.3-46.4c1.1-0.6,2.1-1.2,3.2-1.7c-1.1-0.3-2.3-0.6-3.4-0.9
			c11.7,15.9,21.9,32.8,30.6,50.5C791.9,211.9,796.2,209.4,794.8,206.5z"/>
	</g>
</g>
<g id="XMLID_19_">
	<path id="XMLID_39_" class="st4" d="M874.5,436.9c-10.9-19.8-25.6-39.7-45.2-59.3c-35,9.5-638.4,182.8-638.4,182.8
		c0,17.3,0,34.6,0,51.9c0,0,656.2-99.1,707.3-105.9C894.8,483.9,887.4,460.5,874.5,436.9z"/>
	<g id="XMLID_31_">
		<path id="XMLID_38_" class="st4" d="M876.7,435.7c-12.2-22.1-27.9-41.9-45.6-59.8c-0.6-0.6-1.6-0.9-2.4-0.6
			c-25.7,7-51.2,14.5-76.8,21.8c-51.5,14.7-103,29.5-154.6,44.2c-60,17.2-119.9,34.4-179.9,51.6c-50.9,14.6-101.9,29.2-152.8,43.9
			c-16.6,4.8-33.3,9.5-49.9,14.3c-7.7,2.2-15.8,4-23.4,6.7c-0.3,0.1-0.7,0.2-1.1,0.3c-1.1,0.3-1.8,1.3-1.8,2.4c0,17.3,0,34.6,0,51.9
			c0,1.8,1.6,2.6,3.2,2.4c22-3.3,44-6.6,66-10c53-8,106.1-16,159.1-24c65.5-9.9,130.9-19.7,196.4-29.5
			c59.2-8.9,118.5-17.8,177.7-26.6c34.4-5.1,68.7-10.3,103.1-15.2c1.3-0.2,4.2-0.6,4.3-0.6c1.7-0.2,2.7-1.4,2.4-3.2
			C896.8,481.1,888.6,457.6,876.7,435.7c-1.5-2.8-5.9-0.3-4.3,2.5c11.7,21.5,19.7,44.7,23.4,68.9c0.8-1.1,1.6-2.1,2.4-3.2
			c-30.1,4-60.1,8.7-90.1,13.2c-57.4,8.5-114.8,17.1-172.2,25.7c-65.7,9.9-131.4,19.7-197.1,29.6c-55.8,8.4-111.6,16.8-167.5,25.2
			c-18.1,2.7-36.2,5.5-54.3,8.2c-5.7,0.9-11.3,1.7-17,2.6c-2.7,0.4-6.1,0.4-8.7,1.3c-0.3,0.1-0.8,0.1-1.1,0.2
			c1.1,0.8,2.1,1.6,3.2,2.4c0-17.3,0-34.6,0-51.9c-0.6,0.8-1.2,1.6-1.8,2.4c20.1-5.8,40.2-11.6,60.3-17.3
			c48.7-14,97.4-28,146.1-41.9c59.8-17.2,119.6-34.3,179.4-51.5c53.4-15.3,106.9-30.6,160.3-45.9c29.6-8.4,59.1-17,88.7-25.2
			c1.2-0.3,2.4-0.7,3.6-1c-0.8-0.2-1.6-0.4-2.4-0.6c17.4,17.6,32.8,37.1,44.8,58.8C873.9,441,878.2,438.5,876.7,435.7z"/>
	</g>
</g>
<g id="XMLID_14_">
	<path id="XMLID_30_" class="st4" d="M829,700c10.9-1.5,60.2-59.4,69.8-137.3c-50.8,4.1-707.9,67.4-707.9,67.4c0,17.3,0,34.6,0,51.9
		L775.6,700C783.4,700,829,700,829,700"/>
	<g id="XMLID_25_">
		<path id="XMLID_29_" class="st4" d="M829.6,702.4c4.1-0.7,7.9-4.5,10.8-7.2c5.8-5.5,10.9-11.8,15.6-18.3
			c14.5-19.7,25.6-41.9,33.7-64.9c5.6-16,9.4-32.6,11.6-49.4c0.2-1.3-1.3-2.6-2.5-2.5c-30,2.5-60.1,5.5-90.1,8.3
			c-57.2,5.4-114.4,10.8-171.6,16.3c-66.1,6.3-132.2,12.6-198.3,19c-55.6,5.3-111.1,10.7-166.7,16c-26.7,2.6-53.5,4.4-80.1,7.7
			c-0.4,0-0.8,0.1-1.1,0.1c-1.3,0.1-2.5,1-2.5,2.5c0,17.3,0,34.6,0,51.9c0,1.4,1.1,2.5,2.5,2.5c22.3,0.7,44.6,1.4,66.9,2.1
			c52.4,1.6,104.7,3.2,157.1,4.9c60.5,1.9,121,3.7,181.5,5.6c46.8,1.4,93.6,2.9,140.4,4.3c26.7,0.8,53.3,1.2,80,1.2
			c4,0,8.1,0,12.1,0c3.2,0,3.2-5,0-5c-27.1,0-54.2,0-81.3-0.9c-43.7-1.4-87.4-2.7-131.1-4.1c-60-1.9-120.1-3.7-180.1-5.6
			c-54.5-1.7-108.9-3.4-163.4-5.1c-18.2-0.6-36.5-1.1-54.7-1.7c-5.7-0.2-11.5-0.4-17.2-0.5c-2.9-0.1-6.2-0.7-9.1-0.3
			c-0.4,0.1-0.8,0-1.2,0c0.8,0.8,1.7,1.7,2.5,2.5c0-17.3,0-34.6,0-51.9c-0.8,0.8-1.7,1.7-2.5,2.5c22-2.1,44-4.2,66.1-6.4
			c53.1-5.1,106.2-10.2,159.3-15.3c65.9-6.3,131.7-12.6,197.6-18.9c59.2-5.7,118.4-11.3,177.6-16.9c34.2-3.2,68.4-6.5,102.6-9.5
			c1.6-0.1,3.2-0.3,4.7-0.4c-0.8-0.8-1.7-1.7-2.5-2.5c-3.5,27.2-11.9,53.8-24.2,78.3c-8.6,17.1-19,34.1-32.4,47.9
			c-2.9,3-7,7.9-11.3,8.7C825.2,698.2,826.5,703,829.6,702.4L829.6,702.4z"/>
	</g>
</g>
<path id="XMLID_12_" class="st5" d="M652.5,61.1c-29.1-16.8-59.1-29.3-87.8-38.3C540,46.4,190.9,421.2,190.9,421.2
	c0,17.3,0,34.6,0,51.9c0,0,483.1-364.8,507.1-381.3C683.3,80.2,668.1,70,652.5,61.1z"/>
</svg>
